<svg width="15" height="12" viewBox="0 0 15 12" fill="none" xmlns="http://www.w3.org/2000/svg">
<path d="M0.862372 5.99855C0.862372 6.15295 0.920772 6.30655 1.03837 6.42415L5.83517 11.2241C5.94891 11.3301 6.09935 11.3878 6.25479 11.3851C6.41023 11.3823 6.55854 11.3194 6.66847 11.2094C6.7784 11.0995 6.84137 10.9512 6.84411 10.7958C6.84686 10.6403 6.78916 10.4899 6.68317 10.3761L2.90717 6.59695H14.264C14.4231 6.59695 14.5757 6.53373 14.6882 6.42121C14.8008 6.30869 14.864 6.15608 14.864 5.99695C14.864 5.83782 14.8008 5.6852 14.6882 5.57268C14.5757 5.46016 14.4231 5.39695 14.264 5.39695H2.91277L6.68317 1.62415C6.74045 1.56877 6.78613 1.50254 6.81754 1.42933C6.84895 1.35611 6.86547 1.27737 6.86612 1.1977C6.86677 1.11803 6.85155 1.03903 6.82135 0.965311C6.79115 0.891588 6.74657 0.824618 6.6902 0.768309C6.63384 0.712001 6.56683 0.66748 6.49308 0.637347C6.41933 0.607213 6.34031 0.592069 6.26064 0.592799C6.18098 0.593528 6.10225 0.610117 6.02907 0.641596C5.95588 0.673076 5.88969 0.718815 5.83437 0.776147L1.07437 5.53855C1.00769 5.59488 0.954108 5.66508 0.917354 5.74425C0.8806 5.82342 0.861564 5.90966 0.861572 5.99695L0.862372 5.99855Z" fill="black"/>
</svg>
