<svg width="154" height="163" viewBox="0 0 154 163" fill="none" xmlns="http://www.w3.org/2000/svg">
<path d="M90.416 1.65997C90.7028 1.71522 90.9895 1.77047 91.2849 1.82739C109.209 5.39247 126.448 15.7833 137.536 31.1783C137.692 31.3916 137.847 31.6049 138.008 31.8247C148.318 46.0114 154.085 63.2691 153.999 81.1405C153.998 81.4081 153.998 81.6757 153.997 81.9513C153.921 100.028 148.142 117.701 137.209 131.746C136.942 132.096 136.675 132.445 136.401 132.806C132.61 137.699 128.315 142.097 123.465 145.819C123.096 146.109 122.727 146.4 122.358 146.691C112.368 154.464 100.699 159.226 88.4527 161.265C88.2075 161.309 87.9623 161.353 87.7096 161.398C79.9297 162.765 71.3137 162.381 63.584 160.921C63.2912 160.866 62.9984 160.811 62.6967 160.754C47.9062 157.832 34.3455 150.535 23.5762 139.534C23.0396 138.986 22.498 138.444 21.9554 137.903C19.707 135.634 17.7494 133.202 15.8793 130.584C15.5289 130.095 15.172 129.611 14.8141 129.128C5.00432 115.571 -0.0803497 98.3831 0.000960044 81.4409C0.00166525 81.1733 0.00237046 80.9058 0.00309704 80.6301C0.0687836 64.99 4.33573 49.2616 12.8648 36.3268C13.0765 36.0049 13.0765 36.0049 13.2925 35.6765C17.9179 28.7186 23.444 22.2102 29.9851 17.1849C30.5338 16.7631 31.0762 16.3335 31.6186 15.9029C41.4692 8.19251 53.1381 3.41207 65.2201 1.31673C65.4567 1.27265 65.6933 1.22857 65.9371 1.18316C73.7689 -0.231538 82.6368 0.117129 90.416 1.65997ZM47.0402 50.5429C45.5342 52.2767 45.4675 53.9148 45.4245 56.1674C45.7999 58.7036 47.1673 60.4972 48.8766 62.2438C49.0715 62.4484 49.2664 62.653 49.4672 62.8638C50.105 63.532 50.7474 64.1951 51.3899 64.8583C51.8358 65.3235 52.2815 65.789 52.7268 66.2548C53.8945 67.4744 55.0661 68.6898 56.2385 69.9044C57.4363 71.1467 58.6304 72.393 59.8248 73.639C62.1649 76.079 64.5092 78.5146 66.8562 80.9475C66.3319 82.3254 65.4063 83.2353 64.4112 84.2493C64.2286 84.4381 64.0461 84.627 63.8579 84.8216C63.4619 85.2309 63.0651 85.6396 62.6678 86.0475C62.0372 86.6954 61.4091 87.3458 60.7818 87.9971C58.9979 89.8484 57.211 91.6964 55.419 93.5391C54.3221 94.6675 53.2292 95.8002 52.1388 96.9355C51.7243 97.3655 51.3083 97.7938 50.8907 98.2203C47.0403 101.998 47.0403 101.998 45.4232 107.098C45.7254 109.515 46.6346 111.143 48.2046 112.868C49.9392 114.155 51.6489 114.555 53.7674 114.241C57.0734 113.175 59.3114 110.361 61.6539 107.853C62.089 107.393 62.5245 106.934 62.9604 106.475C64.0991 105.274 65.2328 104.068 66.3655 102.861C67.5251 101.627 68.6896 100.397 69.8536 99.1678C72.1312 96.7603 74.4037 94.3474 76.6728 91.931C78.0023 92.4845 78.8818 93.4792 79.8609 94.5326C80.0452 94.728 80.2295 94.9234 80.4194 95.1248C80.8188 95.5486 81.2174 95.9732 81.6154 96.3985C82.2468 97.0727 82.8804 97.7444 83.5148 98.4154C85.3178 100.324 87.1173 102.235 88.9137 104.15C90.0135 105.323 91.1166 106.491 92.2216 107.658C92.6409 108.102 93.0588 108.547 93.4755 108.994C94.0603 109.621 94.6492 110.243 95.239 110.864C95.4081 111.048 95.5771 111.231 95.7513 111.42C97.4155 113.157 99.4745 114.48 101.869 114.585C104.055 114.284 105.694 113.406 107.186 111.667C108.151 110.221 108.514 109.248 108.536 107.462C108.545 107.124 108.554 106.786 108.564 106.438C108.221 103.887 106.837 102.089 105.123 100.338C104.929 100.133 104.734 99.9284 104.533 99.7176C103.895 99.0494 103.253 98.3863 102.61 97.7231C102.164 97.2579 101.719 96.7924 101.273 96.3266C100.105 95.107 98.9339 93.8916 97.7615 92.677C96.5637 91.4347 95.3696 90.1884 94.1752 88.9425C91.8351 86.5024 89.4908 84.0668 87.1438 81.6339C87.6715 80.2394 88.6198 79.3168 89.624 78.2897C89.8103 78.0964 89.9966 77.9031 90.1886 77.704C90.5926 77.285 90.9974 76.8669 91.4029 76.4494C92.0456 75.7872 92.686 75.1225 93.3257 74.4571C95.1448 72.5658 96.9674 70.6783 98.7931 68.7939C99.9105 67.6403 101.025 66.4832 102.137 65.3241C102.56 64.8843 102.985 64.4459 103.411 64.0088C104.008 63.3954 104.601 62.7777 105.194 62.159C105.369 61.9817 105.543 61.8043 105.724 61.6216C107.422 59.8305 108.601 57.7887 108.597 55.2048C108.514 52.7313 107.646 51.3366 106.041 49.6057C103.938 48.2522 102.228 47.8109 99.7917 48.2958C96.647 49.6998 94.2605 52.8001 91.8988 55.2986C91.4771 55.7422 91.0554 56.1856 90.6335 56.6288C89.5303 57.7885 88.4292 58.9503 87.3284 60.1126C86.2021 61.3011 85.0738 62.4877 83.9458 63.6744C81.7377 65.9978 79.5318 68.3234 77.3272 70.6504C75.9977 70.0969 75.1182 69.1022 74.1391 68.0488C73.9548 67.8534 73.7705 67.658 73.5806 67.4566C73.1812 67.0328 72.7826 66.6082 72.3846 66.1829C71.7533 65.5087 71.1196 64.837 70.4853 64.166C68.6822 62.2579 66.8827 60.346 65.0863 58.431C63.9865 57.2589 62.8834 56.0902 61.7784 54.9235C61.3591 54.4795 60.9412 54.0342 60.5245 53.5876C59.9397 52.9608 59.3508 52.3385 58.761 51.7169C58.5919 51.5336 58.4229 51.3503 58.2487 51.1614C54.9106 47.6781 50.5996 46.9825 47.0402 50.5429Z" fill="#FC3838"/>
</svg>
