<svg width="15" height="16" viewBox="0 0 15 16" fill="none" xmlns="http://www.w3.org/2000/svg">
<path d="M13.3333 0.333374C14.0433 0.333374 14.4142 1.15504 13.9858 1.68587L13.9225 1.75587L10.7625 4.91671L13.9225 8.07754C14.425 8.57921 14.1058 9.42254 13.4283 9.49504L13.3333 9.50004H2.49999V14.5C2.49997 14.7042 2.42503 14.9012 2.2894 15.0537C2.15377 15.2062 1.96687 15.3037 1.76416 15.3275L1.66666 15.3334C1.46255 15.3333 1.26555 15.2584 1.11302 15.1228C0.960489 14.9871 0.863043 14.8003 0.839162 14.5975L0.833328 14.5V1.16671C0.833355 0.962596 0.908292 0.765593 1.04392 0.613064C1.17956 0.460535 1.36645 0.363088 1.56916 0.339207L1.66666 0.333374H13.3333Z" fill="black"/>
</svg>
