<svg xmlns="http://www.w3.org/2000/svg" viewBox="0 0 32 32" id="medal">
  <g>
    <path fill="#d32f2f" d="M16.91,9.08l-3-6.5A1,1,0,0,0,13,2H7a1,1,0,0,0-.91,1.42L12,16.16a1,1,0,0,0,.61.54,1,1,0,0,0,.81-.1l.17-.08A1,1,0,0,0,14.1,16l2.81-6.09A1,1,0,0,0,16.91,9.08Z"></path>
    <path fill="#ef5350" d="M25.84,2.46A1,1,0,0,0,25,2H19a1,1,0,0,0-.91.58L12.28,15.17a1,1,0,0,0,1.31,1.33,6,6,0,0,1,5.07.13A1,1,0,0,0,20,16.16L25.91,3.42A1,1,0,0,0,25.84,2.46Z"></path>
    <path fill="#ffee58" d="M24,22a8,8,0,1,1-11.56-7.16,2.3,2.3,0,0,1,.38-.18A7.67,7.67,0,0,1,16,14a8,8,0,0,1,8,8Z"></path>
    <path fill="#fdd835" d="M24,22a8,8,0,0,1-8,8V14a8,8,0,0,1,8,8Z"></path>
  </g>
</svg>
