<svg width="40" height="40" viewBox="0 0 40 40" fill="none" xmlns="http://www.w3.org/2000/svg">
<rect width="40" height="40" rx="20" fill="#EC5E84" fill-opacity="0.08"/>
<g clip-path="url(#clip0_371_1011)">
<path d="M12.5152 24.2362C12.5152 24.1491 12.5498 24.0657 12.6113 24.0041C12.6728 23.9426 12.7563 23.908 12.8433 23.908H20.7762C20.8632 23.908 20.9466 23.9426 21.0082 24.0041C21.0697 24.0657 21.1043 24.1491 21.1043 24.2362C21.1043 24.3232 21.0697 24.4067 21.0082 24.4682C20.9466 24.5297 20.8632 24.5643 20.7762 24.5643H12.8433C12.7563 24.5643 12.6728 24.5297 12.6113 24.4682C12.5498 24.4067 12.5152 24.3232 12.5152 24.2362ZM12.8433 22.1317H18.6385C18.7255 22.1317 18.809 22.0971 18.8705 22.0356C18.932 21.974 18.9666 21.8906 18.9666 21.8035C18.9666 21.7165 18.932 21.6331 18.8705 21.5715C18.809 21.51 18.7255 21.4754 18.6385 21.4754H12.8433C12.7563 21.4754 12.6728 21.51 12.6113 21.5715C12.5498 21.6331 12.5152 21.7165 12.5152 21.8035C12.5152 21.8906 12.5498 21.974 12.6113 22.0356C12.6728 22.0971 12.7563 22.1317 12.8433 22.1317ZM26.274 26.9245V30.8179C26.274 31.2371 25.933 31.5781 25.5139 31.5781H20.2841C19.865 31.5781 19.524 31.2371 19.524 30.8179V28.4404C18.6533 28.6427 17.7424 28.7454 16.8097 28.7454C16.4231 28.7454 16.0345 28.7273 15.6528 28.6915L11.6 31.5191C11.5456 31.5571 11.481 31.5777 11.4146 31.5781C11.3483 31.5786 11.2834 31.5589 11.2284 31.5217C11.1735 31.4845 11.1311 31.4316 11.1069 31.3698C11.0826 31.3081 11.0777 31.2404 11.0927 31.1758L11.9063 27.6708C9.71891 26.5978 8.42188 24.8742 8.42188 23.0199C8.42188 21.7481 9.01438 20.5461 10.1353 19.5437C11.2077 18.5846 12.667 17.8926 14.3555 17.5423C14.4406 17.525 14.5291 17.5421 14.6016 17.5898C14.6741 17.6376 14.7247 17.7122 14.7423 17.7972C14.76 17.8822 14.7432 17.9707 14.6957 18.0434C14.6481 18.1161 14.5738 18.1669 14.4888 18.1849C12.9358 18.507 11.5451 19.1633 10.5728 20.0328C9.59497 20.9072 9.07813 21.9401 9.07813 23.0199C9.07813 24.6775 10.328 26.2359 12.4217 27.1885C12.4906 27.2199 12.5466 27.2742 12.5801 27.3422C12.6136 27.4101 12.6225 27.4876 12.6054 27.5614L11.9251 30.4921L15.3767 28.0839C15.4413 28.0389 15.52 28.0185 15.5983 28.0266C16.0008 28.0682 16.4051 28.089 16.8097 28.089C17.7457 28.089 18.6574 27.98 19.524 27.7654V26.9244C19.524 26.5053 19.865 26.1643 20.2841 26.1643H22.8634C23.9463 25.2698 24.5413 24.1569 24.5413 23.0198C24.5413 21.8049 23.8682 20.6271 22.6458 19.7034C22.611 19.6777 22.5816 19.6452 22.5593 19.608C22.5371 19.5707 22.5224 19.5295 22.5162 19.4865C22.51 19.4436 22.5124 19.3999 22.5232 19.3579C22.534 19.3159 22.5531 19.2765 22.5792 19.2419C22.6054 19.2073 22.6381 19.1782 22.6755 19.1563C22.713 19.1345 22.7544 19.1202 22.7974 19.1145C22.8404 19.1087 22.8841 19.1115 22.926 19.1228C22.9679 19.134 23.0071 19.1534 23.0414 19.1799C24.4318 20.2306 25.1976 21.5942 25.1976 23.0198C25.1976 24.1445 24.7164 25.2375 23.8274 26.1643H25.5138C25.933 26.1643 26.274 26.5053 26.274 26.9245ZM25.6177 26.9245C25.6177 26.8682 25.5702 26.8206 25.5139 26.8206H20.2841C20.2278 26.8206 20.1802 26.8682 20.1802 26.9245V30.8179C20.1802 30.8742 20.2278 30.9218 20.2841 30.9218H25.5139C25.5702 30.9218 25.6177 30.8742 25.6177 30.8179V26.9245ZM24.1633 28.8712C24.1633 28.9288 24.1481 28.9853 24.1193 29.0352C24.0905 29.0851 24.0491 29.1265 23.9992 29.1553L22.1269 30.2363C22.077 30.2651 22.0204 30.2803 21.9628 30.2803C21.9052 30.2803 21.8486 30.2651 21.7987 30.2363C21.7489 30.2075 21.7074 30.1661 21.6786 30.1162C21.6498 30.0663 21.6347 30.0097 21.6347 29.9522V27.7901C21.6347 27.7325 21.6498 27.6759 21.6786 27.6261C21.7074 27.5762 21.7488 27.5347 21.7987 27.5059C21.8486 27.4771 21.9052 27.462 21.9628 27.462C22.0204 27.462 22.077 27.4772 22.1269 27.506L23.9992 28.587C24.0491 28.6158 24.0905 28.6572 24.1193 28.7071C24.1481 28.757 24.1633 28.8136 24.1633 28.8712ZM23.1789 28.8712L22.2909 28.3585V29.3838L23.1789 28.8712ZM29.4366 11.8513C29.4942 11.8513 29.5507 11.8361 29.6004 11.8073L30.8677 11.0756C30.9053 11.0542 30.9383 11.0256 30.9648 10.9914C30.9914 10.9572 31.0108 10.9181 31.0222 10.8764C31.0335 10.8346 31.0365 10.791 31.0309 10.7481C31.0253 10.7052 31.0113 10.6638 30.9897 10.6263C30.968 10.5888 30.9392 10.556 30.9048 10.5297C30.8705 10.5035 30.8312 10.4842 30.7894 10.4732C30.7475 10.4621 30.7039 10.4594 30.6611 10.4653C30.6182 10.4712 30.5769 10.4854 30.5396 10.5073L29.2723 11.2389C29.2097 11.2751 29.1608 11.3308 29.1331 11.3976C29.1055 11.4644 29.1007 11.5384 29.1194 11.6082C29.1381 11.678 29.1794 11.7397 29.2367 11.7836C29.2941 11.8276 29.3644 11.8514 29.4366 11.8513ZM27.3244 10.3709C27.3617 10.3924 27.4029 10.4065 27.4456 10.4121C27.4884 10.4177 27.5318 10.4149 27.5734 10.4037C27.615 10.3926 27.6541 10.3733 27.6882 10.3471C27.7224 10.3208 27.7511 10.2881 27.7726 10.2508L28.5444 8.91399C28.5663 8.87666 28.5806 8.83537 28.5865 8.7925C28.5923 8.74962 28.5896 8.70601 28.5786 8.66418C28.5675 8.62234 28.5483 8.58311 28.522 8.54873C28.4957 8.51436 28.4629 8.48552 28.4254 8.46388C28.3879 8.44225 28.3466 8.42824 28.3036 8.42266C28.2607 8.41708 28.2171 8.42005 28.1754 8.43138C28.1336 8.44272 28.0945 8.46221 28.0603 8.48872C28.0261 8.51524 27.9975 8.54825 27.9761 8.58587L27.2043 9.92265C27.1608 9.99801 27.149 10.0876 27.1715 10.1716C27.1941 10.2557 27.249 10.3274 27.3244 10.3709ZM29.3783 13.9282C29.3783 14.0152 29.4129 14.0987 29.4744 14.1602C29.5359 14.2218 29.6194 14.2563 29.7064 14.2563H31.25C31.337 14.2563 31.4205 14.2218 31.482 14.1602C31.5436 14.0987 31.5781 14.0152 31.5781 13.9282C31.5781 13.8412 31.5436 13.7577 31.482 13.6962C31.4205 13.6347 31.337 13.6001 31.25 13.6001H29.7064C29.6194 13.6001 29.5359 13.6347 29.4744 13.6962C29.4129 13.7577 29.3783 13.8412 29.3783 13.9282ZM15.4768 17.5292C15.6513 16.878 16.0669 16.3349 16.6472 15.9999L18.3635 15.009C18.4008 14.9874 18.442 14.9734 18.4847 14.9678C18.5275 14.9622 18.5709 14.965 18.6125 14.9762C18.6453 14.9851 18.6766 14.999 18.7052 15.0174C20.469 13.6974 21.8598 12.1692 22.6565 10.6734L22.6263 10.6211C22.2545 9.97717 22.4759 9.15076 23.1199 8.7789C23.764 8.40713 24.5903 8.62857 24.9621 9.27249L26.3011 11.5916C27.0123 11.2237 27.8972 11.4776 28.3017 12.1782C28.7061 12.8787 28.4835 13.7719 27.8094 14.204L29.1483 16.5231C29.3279 16.8341 29.3753 17.1974 29.2819 17.5462C29.1884 17.8949 28.9657 18.1858 28.6547 18.3654C28.4511 18.4835 28.22 18.5457 27.9847 18.5458C27.867 18.5458 27.7485 18.5303 27.6317 18.4989C27.283 18.4055 26.992 18.1828 26.8125 17.8718L26.7823 17.8195C25.1034 17.7621 23.1047 18.1943 21.0973 19.0469L23.4664 22.2359C23.7028 22.5542 23.6614 22.9937 23.3699 23.2581L22.8487 23.7311C22.7697 23.8026 22.6768 23.8568 22.5757 23.8904C22.4746 23.9239 22.3677 23.9361 22.2616 23.926C22.1571 23.9159 22.0558 23.8841 21.9642 23.8326C21.8727 23.7811 21.7929 23.7111 21.7299 23.6271L19.2513 20.3105L19.1648 20.3604C18.7791 20.5831 18.3502 20.6968 17.9147 20.6968C17.6919 20.6966 17.4702 20.6672 17.2551 20.6094C16.6039 20.4349 16.0608 20.0192 15.7258 19.4389C15.3907 18.8586 15.3023 18.1804 15.4768 17.5292ZM22.9396 22.6272L20.6279 19.5156L19.8236 19.98L22.2556 23.2343C22.2637 23.2452 22.274 23.2544 22.2859 23.261C22.2979 23.2677 22.3111 23.2717 22.3247 23.2728C22.3424 23.2745 22.3767 23.2732 22.4077 23.245L22.9288 22.7721C22.9698 22.7349 22.9744 22.674 22.9396 22.6272ZM26.6301 12.1615L27.4804 13.6342C27.8413 13.384 27.9568 12.8934 27.7333 12.5063C27.5099 12.1193 27.0272 11.974 26.6301 12.1615ZM23.1946 10.293L27.3808 17.5436C27.4727 17.7028 27.6221 17.817 27.8015 17.865C27.9809 17.913 28.1673 17.889 28.3265 17.797C28.4857 17.7052 28.5999 17.5557 28.648 17.3763C28.696 17.1969 28.6719 17.0105 28.58 16.8513L24.3938 9.60067C24.2658 9.37881 24.0325 9.25463 23.7931 9.25463C23.6757 9.25463 23.5568 9.28445 23.4481 9.34726C23.2889 9.43913 23.1748 9.58857 23.1267 9.76796C23.0787 9.94735 23.1028 10.1338 23.1946 10.293ZM19.065 15.5678L20.7478 18.4826C22.7159 17.6347 24.6902 17.1737 26.4009 17.1589L23.0379 11.3339C22.1698 12.808 20.7834 14.2873 19.065 15.5678ZM16.2941 19.1108C16.5414 19.5392 16.943 19.8463 17.4249 19.9754C17.9068 20.1046 18.4081 20.0394 18.8366 19.792L20.2687 18.9652L18.4074 15.7413L16.9753 16.5682C16.5468 16.8155 16.2398 17.2172 16.1106 17.699C15.9815 18.1809 16.0467 18.6823 16.2941 19.1108ZM10.222 12.215C10.222 11.116 11.1161 10.2219 12.215 10.2219C13.314 10.2219 14.2081 11.116 14.2081 12.215C14.2081 13.3139 13.314 14.208 12.215 14.208C11.1161 14.208 10.222 13.3139 10.222 12.215ZM10.8783 12.215C10.8783 12.9521 11.4779 13.5517 12.215 13.5517C12.9522 13.5517 13.5518 12.9521 13.5518 12.215C13.5518 11.4779 12.9522 10.8782 12.215 10.8782C11.4779 10.8782 10.8783 11.4779 10.8783 12.215ZM8.42188 12.5615V11.8685C8.42188 11.562 8.67116 11.3127 8.97758 11.3127C9.24898 11.3127 9.35605 11.1053 9.38234 11.0417C9.40869 10.978 9.47975 10.7556 9.2878 10.5637C9.23602 10.5122 9.19497 10.451 9.16703 10.3835C9.13908 10.3161 9.1248 10.2438 9.125 10.1708C9.125 10.0223 9.1828 9.88271 9.2878 9.77776L9.77778 9.28773C9.99444 9.07103 10.347 9.07103 10.5637 9.28773C10.7557 9.47968 10.9781 9.40862 11.0417 9.38228C11.1053 9.35593 11.3128 9.24892 11.3128 8.97751C11.3128 8.67104 11.562 8.42176 11.8685 8.42176H12.5615C12.8679 8.42176 13.1172 8.67104 13.1172 8.97751C13.1172 9.24892 13.3246 9.35593 13.3882 9.38228C13.4518 9.40862 13.6743 9.47959 13.8662 9.28773C14.0829 9.07103 14.4354 9.07103 14.6521 9.28773L15.1422 9.77776C15.2471 9.88271 15.3049 10.0223 15.3049 10.1707C15.3049 10.3192 15.2471 10.4588 15.1421 10.5637C14.9502 10.7556 15.0213 10.978 15.0476 11.0417C15.074 11.1052 15.181 11.3127 15.4524 11.3127C15.7588 11.3127 16.0081 11.562 16.0081 11.8685V12.5615C16.0081 12.8679 15.7588 13.1172 15.4524 13.1172C15.181 13.1172 15.0739 13.3247 15.0476 13.3883C15.0213 13.4518 14.9502 13.6743 15.1422 13.8662C15.3589 14.0829 15.3589 14.4355 15.1422 14.6522L14.6521 15.1422C14.5472 15.2471 14.4076 15.305 14.2592 15.305C14.1107 15.305 13.9711 15.2472 13.8662 15.1422C13.6743 14.9503 13.4519 15.0213 13.3882 15.0477C13.3247 15.074 13.1172 15.181 13.1172 15.4525C13.1172 15.7589 12.8679 16.0082 12.5615 16.0082H11.8685C11.5621 16.0082 11.3128 15.7589 11.3128 15.4525C11.3128 15.1805 11.1055 15.0735 11.042 15.0472C10.9784 15.0208 10.7562 14.9499 10.5638 15.1422C10.4589 15.2472 10.3193 15.305 10.1709 15.305C10.0224 15.305 9.88278 15.2472 9.77788 15.1422L9.28789 14.6522C9.23611 14.6008 9.19506 14.5395 9.16712 14.4721C9.13917 14.4046 9.12489 14.3323 9.12509 14.2592C9.12509 14.1108 9.18289 13.9712 9.28789 13.8662C9.4798 13.6743 9.40873 13.4519 9.38239 13.3884C9.35605 13.3247 9.24903 13.1173 8.97763 13.1173C8.67116 13.1172 8.42188 12.8679 8.42188 12.5615ZM9.07813 12.4653C9.48552 12.5008 9.82892 12.7514 9.98867 13.1372C10.1485 13.5229 10.0828 13.943 9.81983 14.2562L10.1739 14.6102C10.4873 14.3469 10.9074 14.2811 11.2931 14.4408C11.6788 14.6006 11.9293 14.9442 11.9647 15.352H12.4653C12.5008 14.9446 12.7514 14.6012 13.1372 14.4414C13.5229 14.2817 13.943 14.3472 14.2562 14.6102L14.6102 14.2562C14.3472 13.943 14.2816 13.5229 14.4414 13.1372C14.6012 12.7514 14.9445 12.5008 15.3519 12.4653V11.9647C14.9445 11.9292 14.6011 11.6786 14.4414 11.2928C14.2816 10.907 14.3472 10.487 14.6102 10.1738L14.2561 9.81976C13.9429 10.0827 13.5229 10.1483 13.1371 9.98856C12.7514 9.82876 12.5008 9.4854 12.4653 9.07801H11.9647C11.9292 9.4854 11.6786 9.82881 11.2929 9.98856C10.9071 10.1484 10.487 10.0827 10.1739 9.81971L9.81983 10.1738C10.0828 10.487 10.1484 10.907 9.98863 11.2928C9.82892 11.6786 9.48552 11.9292 9.07813 11.9647V12.4653ZM31.5523 21.1892C31.4365 22.1608 30.9693 23.0852 30.7011 23.5496C30.4329 24.0141 29.8661 24.8809 29.0825 25.467C28.5746 25.847 28.063 26.0382 27.5674 26.0382C27.2212 26.0382 26.8828 25.945 26.5587 25.7578L26.4408 25.6898C26.2467 25.5777 26.1078 25.3964 26.0495 25.1792C25.9914 24.9621 26.021 24.7357 26.1331 24.5416L26.6043 23.7255C26.836 23.3241 27.3511 23.1861 27.7525 23.4178L28.0288 23.5774C28.1072 23.6227 28.1999 23.6073 28.2596 23.5393C28.5173 23.2455 28.7546 22.9118 28.965 22.5473C29.1755 22.1829 29.3458 21.8104 29.4714 21.4404C29.5005 21.3547 29.4674 21.2667 29.3891 21.2215L29.1127 21.062C28.9185 20.9499 28.7796 20.7686 28.7214 20.5515C28.6633 20.3343 28.6929 20.1078 28.805 19.9137L29.2761 19.0977C29.5078 18.6963 30.0229 18.5583 30.4243 18.79L30.5422 18.8581C31.3306 19.3132 31.6799 20.1193 31.5523 21.1892ZM30.2141 19.4264L30.0963 19.3583C30.0539 19.3339 30.0036 19.3273 29.9564 19.34C29.9092 19.3526 29.869 19.3835 29.8445 19.4258L29.3734 20.2418C29.3613 20.2627 29.3534 20.2859 29.3504 20.3099C29.3473 20.3339 29.349 20.3582 29.3554 20.3815C29.3615 20.4049 29.3722 20.4269 29.3869 20.4461C29.4016 20.4654 29.4199 20.4815 29.4409 20.4936L29.7172 20.6531C30.0689 20.8562 30.2234 21.2666 30.0929 21.6512C29.9535 22.0619 29.7653 22.4737 29.5334 22.8754C29.3015 23.277 29.039 23.6459 28.753 23.972C28.4852 24.2775 28.0525 24.3488 27.7008 24.1457L27.4244 23.9862C27.382 23.9618 27.3317 23.9552 27.2845 23.9679C27.2373 23.9805 27.1971 24.0114 27.1726 24.0537L26.7014 24.8697C26.6893 24.8907 26.6815 24.9138 26.6784 24.9378C26.6753 24.9618 26.677 24.9861 26.6834 25.0095C26.6896 25.0329 26.7003 25.0548 26.715 25.074C26.7296 25.0933 26.748 25.1094 26.7689 25.1215L26.8868 25.1896C27.4456 25.5122 28.0352 25.431 28.6895 24.9415C29.4049 24.4064 29.9371 23.5604 30.1328 23.2215C30.3285 22.8827 30.795 21.9986 30.9007 21.1115C30.9974 20.3002 30.7729 19.749 30.2141 19.4264Z" fill="#09A5E8"/>
</g>
<defs>
<clipPath id="clip0_371_1011">
<rect width="24" height="24" fill="white" transform="translate(8 8)"/>
</clipPath>
</defs>
</svg>
