<svg width="150" height="150" viewBox="0 0 150 150" fill="none" xmlns="http://www.w3.org/2000/svg">
<path d="M88.1835 0.878902C88.451 0.927619 88.7185 0.976337 88.9941 1.02653C101.191 3.27059 112.547 8.61511 122.168 16.4062C122.327 16.5352 122.487 16.6641 122.651 16.7969C126.774 20.1597 130.646 23.8996 133.887 28.125C134.109 28.3977 134.332 28.6703 134.561 28.9513C142.137 38.3999 146.961 49.9585 149.121 61.8164C149.169 62.0612 149.217 62.306 149.266 62.5583C150.816 70.6763 150.708 80.0833 149.121 88.1836C149.072 88.4511 149.024 88.7185 148.973 88.9941C146.729 101.191 141.385 112.547 133.594 122.168C133.465 122.327 133.336 122.487 133.203 122.651C129.84 126.774 126.1 130.646 121.875 133.887C121.602 134.109 121.33 134.332 121.049 134.561C111.6 142.137 100.041 146.961 88.1835 149.121C87.9387 149.169 87.6939 149.217 87.4417 149.266C79.3237 150.816 69.9167 150.708 61.8164 149.121C61.5489 149.072 61.2814 149.024 61.0058 148.973C48.8089 146.729 37.4529 141.385 27.832 133.594C27.6725 133.465 27.513 133.336 27.3486 133.203C23.226 129.84 19.3544 126.1 16.1132 121.875C15.8908 121.602 15.6684 121.33 15.4392 121.049C7.86334 111.6 3.03864 100.041 0.878856 88.1836C0.830894 87.9388 0.782932 87.694 0.733516 87.4417C-0.816428 79.3237 -0.708093 69.9167 0.878856 61.8164C0.927574 61.5489 0.976291 61.2815 1.02648 61.0059C3.27055 48.809 8.61506 37.453 16.4062 27.832C16.5351 27.6725 16.664 27.513 16.7969 27.3487C20.1596 23.226 23.8995 19.3544 28.125 16.1133C28.3976 15.8908 28.6703 15.6684 28.9512 15.4392C38.3999 7.86339 49.9585 3.03868 61.8164 0.878902C62.0612 0.83094 62.306 0.782978 62.5582 0.733562C70.6762 -0.816382 80.0832 -0.708047 88.1835 0.878902ZM100.758 50.0874C100.351 50.4949 99.9434 50.9022 99.5359 51.3095C98.4381 52.4073 97.3411 53.506 96.2443 54.6048C95.0949 55.7561 93.9447 56.9065 92.7945 58.057C90.6203 60.2321 88.4468 62.408 86.2736 64.5841C83.798 67.0631 81.3214 69.5412 78.8449 72.0193C73.7537 77.1135 68.6636 82.2087 63.5742 87.3047C62.6319 86.8576 62.025 86.3971 61.3037 85.6384C60.5633 84.8791 59.8204 84.1492 59.0148 83.4595C57.8175 82.4305 56.6685 81.3536 55.5175 80.2734C53.8551 78.7109 53.8551 78.7109 52.1484 77.1973C51.0076 76.2159 49.9138 75.1863 48.8159 74.1577C48.2449 73.624 47.6738 73.0905 47.1027 72.557C46.648 72.132 46.1938 71.7064 45.7397 71.2807C43.5511 69.263 41.3558 67.2878 38.2873 66.9983C36.0631 67.1868 34.3645 67.8611 32.7335 69.4107C31.3544 71.0668 30.8443 73.0303 30.9413 75.1614C31.3867 77.9822 33.1831 79.8773 35.2821 81.665C36.2876 82.5452 37.2585 83.4602 38.2324 84.375C39.5245 85.5869 40.8218 86.7851 42.1646 87.941C43.174 88.829 44.1553 89.7475 45.1413 90.6614C46.1031 91.5521 47.0703 92.4358 48.0468 93.3105C49.1796 94.3257 50.2998 95.3534 51.416 96.3867C52.7825 97.6514 54.1561 98.9071 55.545 100.147C56.0372 100.59 56.5252 101.037 57.0098 101.488C59.2678 103.576 61.1596 105.015 64.3272 104.963C68.1051 104.538 70.7772 100.942 73.2883 98.4134C73.8299 97.868 74.3724 97.3236 74.9152 96.7794C76.0674 95.6239 77.2183 94.4673 78.3691 93.3105C79.7041 91.9686 81.0396 90.6271 82.3764 89.2869C82.9072 88.7541 83.4373 88.2205 83.9672 87.6867C84.2971 87.3558 84.627 87.025 84.9569 86.6941C85.1009 86.5486 85.245 86.403 85.3934 86.2531C86.1766 85.4697 86.9809 84.7267 87.8205 84.0039C89.2568 82.7585 90.5985 81.4241 91.9455 80.0836C92.2268 79.8047 92.5081 79.5258 92.7894 79.2469C93.7042 78.3397 94.6175 77.431 95.5307 76.5221C95.847 76.2073 96.1633 75.8926 96.4796 75.5779C97.7952 74.2686 99.1104 72.9588 100.425 71.648C102.3 69.7775 104.177 67.9096 106.059 66.0451C107.386 64.7286 108.711 63.4094 110.034 62.0881C110.822 61.301 111.612 60.5153 112.404 59.7325C113.149 58.9964 113.89 58.257 114.629 57.5148C115.027 57.1163 115.429 56.7213 115.832 56.3265C117.501 54.6406 118.677 53.0619 119.101 50.6927C119.073 48.3945 118.581 46.6896 117.114 44.8975C110.279 39.305 105.66 45.1719 100.758 50.0874Z" fill="#16AF69"/>
</svg>
