<svg width="16" height="16" viewBox="0 0 16 16" fill="none" xmlns="http://www.w3.org/2000/svg">
<path d="M3.80005 6.15771H6.60005" stroke="#EC5E84" stroke-width="0.875" stroke-linecap="round" stroke-linejoin="round"/>
<path d="M14.183 6.89502H12.3616C11.1121 6.89502 10.0999 7.8846 10.0999 9.10555C10.0999 10.3265 11.1128 11.3161 12.3609 11.3161H14.183C14.2418 11.3161 14.2705 11.3161 14.295 11.3146C14.673 11.2903 14.974 10.9963 14.9985 10.6271C14.9999 10.6036 14.9999 10.5748 14.9999 10.5181V7.69302C14.9999 7.63628 14.9999 7.60755 14.9985 7.58397C14.9733 7.21481 14.673 6.92081 14.295 6.89649C14.2705 6.89502 14.2418 6.89502 14.183 6.89502Z" stroke="#EC5E84" stroke-width="0.875"/>
<path d="M14.2755 6.89467C14.2209 5.5153 14.0459 4.6694 13.4796 4.07403C12.6599 3.21045 11.3397 3.21045 8.7 3.21045H6.6C3.9603 3.21045 2.6401 3.21045 1.8204 4.07403C1.0007 4.93761 1 6.32656 1 9.1052C1 11.8838 1 13.2735 1.8204 14.1364C2.6408 14.9992 3.9603 15 6.6 15H8.7C11.3397 15 12.6599 15 13.4796 14.1364C14.0459 13.541 14.2216 12.6951 14.2755 11.3157" stroke="#EC5E84" stroke-width="0.875"/>
<path d="M3.80005 3.21049L6.41455 1.38533C6.78233 1.13385 7.21148 1 7.65005 1C8.08861 1 8.51777 1.13385 8.88555 1.38533L11.5 3.21049" stroke="#EC5E84" stroke-width="0.875" stroke-linecap="round"/>
<path d="M12.1938 9.10498H12.2008" stroke="#EC5E84" stroke-width="1.16667" stroke-linecap="round" stroke-linejoin="round"/>
</svg>
