<svg width="24" height="24" viewBox="0 0 24 24" fill="none" xmlns="http://www.w3.org/2000/svg">
<rect width="24" height="24" rx="12" fill="white" fill-opacity="0.8"/>
<path fill-rule="evenodd" clip-rule="evenodd" d="M10.9917 7.16226C11.088 7.26628 11.1421 7.4073 11.1421 7.55433C11.1421 7.70135 11.088 7.84237 10.9917 7.94639L7.75504 11.438H17.4857C17.6221 11.438 17.7529 11.4965 17.8494 11.6005C17.9458 11.7046 18 11.8457 18 11.9928C18 12.14 17.9458 12.2811 17.8494 12.3851C17.7529 12.4892 17.6221 12.5477 17.4857 12.5477H7.75504L10.9917 16.0393C11.0423 16.0901 11.0828 16.1513 11.1109 16.2194C11.139 16.2874 11.1541 16.3609 11.1553 16.4354C11.1566 16.5099 11.1439 16.5839 11.118 16.653C11.0921 16.7221 11.0536 16.7848 11.0048 16.8375C10.956 16.8902 10.8978 16.9317 10.8337 16.9596C10.7697 16.9875 10.7011 17.0012 10.6321 16.9999C10.563 16.9986 10.4949 16.9823 10.4318 16.952C10.3687 16.9216 10.3119 16.8779 10.2649 16.8234L6.15041 12.3849C6.0541 12.2809 6 12.1399 6 11.9928C6 11.8458 6.0541 11.7048 6.15041 11.6008L10.2649 7.16226C10.3613 7.05836 10.492 7 10.6283 7C10.7646 7 10.8953 7.05836 10.9917 7.16226Z" fill="black"/>
</svg>
