<svg width="17" height="17" viewBox="0 0 17 17" fill="none" xmlns="http://www.w3.org/2000/svg">
<g clip-path="url(#clip0_959_1616)">
<path d="M4.82205 0C4.97985 0 5.13119 0.0626873 5.24278 0.174271C5.35436 0.285856 5.41705 0.437196 5.41705 0.595V1.70765H11.8065V0.60265C11.8065 0.444846 11.8692 0.293506 11.9808 0.181921C12.0924 0.0703373 12.2437 0.00765 12.4015 0.00765C12.5593 0.00765 12.7106 0.0703373 12.8222 0.181921C12.9338 0.293506 12.9965 0.444846 12.9965 0.60265V1.70765H15.3C15.7507 1.70765 16.183 1.88664 16.5018 2.20527C16.8206 2.5239 16.9998 2.95608 17 3.4068V15.3008C16.9998 15.7516 16.8206 16.1838 16.5018 16.5024C16.183 16.821 15.7507 17 15.3 17H1.7C1.24928 17 0.817006 16.821 0.498219 16.5024C0.179431 16.1838 0.00022536 15.7516 0 15.3008L0 3.4068C0.00022536 2.95608 0.179431 2.5239 0.498219 2.20527C0.817006 1.88664 1.24928 1.70765 1.7 1.70765H4.22705V0.59415C4.22728 0.436494 4.29006 0.285371 4.40162 0.173971C4.51318 0.0625705 4.66439 -1.60874e-07 4.82205 0ZM1.19 6.5807V15.3008C1.19 15.3678 1.20319 15.4341 1.22882 15.496C1.25445 15.5579 1.29202 15.6141 1.33938 15.6615C1.38673 15.7088 1.44296 15.7464 1.50483 15.772C1.56671 15.7977 1.63303 15.8109 1.7 15.8109H15.3C15.367 15.8109 15.4333 15.7977 15.4952 15.772C15.557 15.7464 15.6133 15.7088 15.6606 15.6615C15.708 15.6141 15.7455 15.5579 15.7712 15.496C15.7968 15.4341 15.81 15.3678 15.81 15.3008V6.5926L1.19 6.5807ZM5.66695 12.4262V13.8422H4.25V12.4262H5.66695ZM9.20805 12.4262V13.8422H7.79195V12.4262H9.20805ZM12.75 12.4262V13.8422H11.3331V12.4262H12.75ZM5.66695 9.0457V10.4618H4.25V9.0457H5.66695ZM9.20805 9.0457V10.4618H7.79195V9.0457H9.20805ZM12.75 9.0457V10.4618H11.3331V9.0457H12.75ZM4.22705 2.8968H1.7C1.63303 2.8968 1.56671 2.90999 1.50483 2.93562C1.44296 2.96125 1.38673 2.99882 1.33938 3.04618C1.29202 3.09353 1.25445 3.14976 1.22882 3.21163C1.20319 3.27351 1.19 3.33983 1.19 3.4068V5.39155L15.81 5.40345V3.4068C15.81 3.33983 15.7968 3.27351 15.7712 3.21163C15.7455 3.14976 15.708 3.09353 15.6606 3.04618C15.6133 2.99882 15.557 2.96125 15.4952 2.93562C15.4333 2.90999 15.367 2.8968 15.3 2.8968H12.9965V3.68645C12.9965 3.84425 12.9338 3.99559 12.8222 4.10718C12.7106 4.21876 12.5593 4.28145 12.4015 4.28145C12.2437 4.28145 12.0924 4.21876 11.9808 4.10718C11.8692 3.99559 11.8065 3.84425 11.8065 3.68645V2.8968H5.41705V3.6788C5.41705 3.8366 5.35436 3.98794 5.24278 4.09953C5.13119 4.21111 4.97985 4.2738 4.82205 4.2738C4.66425 4.2738 4.51291 4.21111 4.40132 4.09953C4.28974 3.98794 4.22705 3.8366 4.22705 3.6788V2.8968Z" fill="white"/>
</g>
<defs>
<clipPath id="clip0_959_1616">
<rect width="17" height="17" fill="white"/>
</clipPath>
</defs>
</svg>
