<svg width="20" height="20" viewBox="0 0 20 20" fill="none" xmlns="http://www.w3.org/2000/svg">
<g opacity="0.8">
<path d="M11.1785 17.4167L14.7143 13.8808C15.6466 12.9485 16.2816 11.7606 16.5388 10.4674C16.796 9.17419 16.6639 7.83376 16.1593 6.61561C15.6547 5.39745 14.8003 4.35628 13.7039 3.62376C12.6076 2.89123 11.3187 2.50024 10.0002 2.50024C8.68164 2.50024 7.39272 2.89123 6.2964 3.62376C5.20008 4.35628 4.3456 5.39745 3.841 6.61561C3.33641 7.83376 3.20437 9.17419 3.46157 10.4674C3.71878 11.7606 4.35368 12.9485 5.286 13.8808L8.82267 17.4167C8.9773 17.5715 9.16092 17.6942 9.36303 17.778C9.56515 17.8618 9.78179 17.9049 10.0006 17.9049C10.2194 17.9049 10.436 17.8618 10.6381 17.778C10.8402 17.6942 11.0239 17.5715 11.1785 17.4167Z" stroke="white" stroke-width="2" stroke-linecap="round" stroke-linejoin="round"/>
<path d="M11.7678 10.9344C12.2366 10.4656 12.5 9.82971 12.5 9.16667C12.5 8.50363 12.2366 7.86774 11.7678 7.3989C11.2989 6.93006 10.663 6.66667 10 6.66667C9.33696 6.66667 8.70107 6.93006 8.23223 7.3989C7.76339 7.86774 7.5 8.50363 7.5 9.16667C7.5 9.82971 7.76339 10.4656 8.23223 10.9344C8.70107 11.4033 9.33696 11.6667 10 11.6667C10.663 11.6667 11.2989 11.4033 11.7678 10.9344Z" stroke="white" stroke-width="2" stroke-linecap="round" stroke-linejoin="round"/>
</g>
</svg>
