<svg xmlns="http://www.w3.org/2000/svg" viewBox="0 0 32 32" id="people">
  <path fill="#22242b" d="M16,13.29A6.15,6.15,0,1,0,9.86,7.14,6.15,6.15,0,0,0,16,13.29ZM16,3a4.15,4.15,0,1,1-4.14,4.14A4.15,4.15,0,0,1,16,3ZM27.38,26.81C26.18,29.9,20.72,31,16,31S5.82,29.9,4.62,26.81c-.64-1.65-.07-4.1,1.49-6.39A12.11,12.11,0,0,1,16,15a12.24,12.24,0,0,1,10.91,7.25,1,1,0,1,1-1.82.81A10.37,10.37,0,0,0,16,17a10.09,10.09,0,0,0-8.23,4.55c-1.34,1.95-1.61,3.72-1.29,4.54C7.14,27.78,11.14,29,16,29s8.86-1.22,9.52-2.91a1,1,0,0,1,1.86.72Z"></path>
</svg>
