<svg width="14" height="14" viewBox="0 0 14 14" fill="none" xmlns="http://www.w3.org/2000/svg">
<path d="M3.5 12.8337H12.25V11.667H3.507C3.2375 11.66 2.91667 11.5532 2.91667 11.0837C2.91667 10.6141 3.2375 10.5073 3.507 10.5003H12.25V2.33366C12.25 1.69024 11.7267 1.16699 11.0833 1.16699H3.5C2.7965 1.16699 1.75 1.63308 1.75 2.91699V11.0837C1.75 12.3676 2.7965 12.8337 3.5 12.8337ZM2.91667 4.66699V2.91699C2.91667 2.44741 3.2375 2.34066 3.5 2.33366H11.0833V9.33366H2.91667V4.66699Z" fill="#E94444"/>
<path d="M4.6665 3.5H9.9165V4.66667H4.6665V3.5Z" fill="#E94444"/>
</svg>
