<svg xmlns="http://www.w3.org/2000/svg" width="96" height="96" fill="none" viewBox="0 0 96 96" id="calendar">
  <path stroke="#000" stroke-width="5" d="M10 29C10 20.7157 16.7157 14 25 14H70C78.2843 14 85 20.7157 85 29V71C85 79.2843 78.2843 86 70 86H25C16.7157 86 10 79.2843 10 71V29Z"></path>
  <path fill="#000" d="M20 50.5C20 49.1193 21.1193 48 22.5 48H27.5C28.8807 48 30 49.1193 30 50.5 30 51.8807 28.8807 53 27.5 53H22.5C21.1193 53 20 51.8807 20 50.5zM20 60.5C20 59.1193 21.1193 58 22.5 58H27.5C28.8807 58 30 59.1193 30 60.5 30 61.8807 28.8807 63 27.5 63H22.5C21.1193 63 20 61.8807 20 60.5zM20 70.5C20 69.1193 21.1193 68 22.5 68H27.5C28.8807 68 30 69.1193 30 70.5 30 71.8807 28.8807 73 27.5 73H22.5C21.1193 73 20 71.8807 20 70.5zM35 50.5C35 49.1193 36.1193 48 37.5 48H42.5C43.8807 48 45 49.1193 45 50.5 45 51.8807 43.8807 53 42.5 53H37.5C36.1193 53 35 51.8807 35 50.5zM35 60.5C35 59.1193 36.1193 58 37.5 58H42.5C43.8807 58 45 59.1193 45 60.5 45 61.8807 43.8807 63 42.5 63H37.5C36.1193 63 35 61.8807 35 60.5zM35 70.5C35 69.1193 36.1193 68 37.5 68H42.5C43.8807 68 45 69.1193 45 70.5 45 71.8807 43.8807 73 42.5 73H37.5C36.1193 73 35 71.8807 35 70.5zM50 50.5C50 49.1193 51.1193 48 52.5 48H57.5C58.8807 48 60 49.1193 60 50.5 60 51.8807 58.8807 53 57.5 53H52.5C51.1193 53 50 51.8807 50 50.5zM50 60.5C50 59.1193 51.1193 58 52.5 58H57.5C58.8807 58 60 59.1193 60 60.5 60 61.8807 58.8807 63 57.5 63H52.5C51.1193 63 50 61.8807 50 60.5zM50 70.5C50 69.1193 51.1193 68 52.5 68H57.5C58.8807 68 60 69.1193 60 70.5 60 71.8807 58.8807 73 57.5 73H52.5C51.1193 73 50 71.8807 50 70.5zM65 50.5C65 49.1193 66.1193 48 67.5 48H72.5C73.8807 48 75 49.1193 75 50.5 75 51.8807 73.8807 53 72.5 53H67.5C66.1193 53 65 51.8807 65 50.5zM65 60.5C65 59.1193 66.1193 58 67.5 58H72.5C73.8807 58 75 59.1193 75 60.5 75 61.8807 73.8807 63 72.5 63H67.5C66.1193 63 65 61.8807 65 60.5zM65 70.5C65 69.1193 66.1193 68 67.5 68H72.5C73.8807 68 75 69.1193 75 70.5 75 71.8807 73.8807 73 72.5 73H67.5C66.1193 73 65 71.8807 65 70.5z"></path>
  <path stroke="#000" stroke-linecap="round" stroke-width="5" d="M11 35L85 35M30 9L30 19M66 9L66 19"></path>
</svg>
