<svg width="14" height="14" viewBox="0 0 14 14" fill="none" xmlns="http://www.w3.org/2000/svg">
<path d="M1.74994 4.81288C1.74988 4.30527 1.87599 3.8056 2.11694 3.35882C2.35789 2.91204 2.70612 2.53216 3.1303 2.25334C3.55448 1.97452 4.04132 1.80552 4.54702 1.76152C5.05272 1.71753 5.56143 1.79993 6.02738 2.00131C6.49334 2.20268 6.90193 2.51673 7.21642 2.91519C7.5309 3.31365 7.7414 3.78403 7.829 4.28403C7.91659 4.78402 7.87853 5.29795 7.71824 5.77959C7.55794 6.26123 7.28044 6.69547 6.91069 7.04325C7.60781 7.3817 8.21307 7.8832 8.6752 8.50526C9.13733 9.12732 9.4427 9.8516 9.56544 10.6168C9.57894 10.7019 9.57554 10.7889 9.55543 10.8727C9.53532 10.9565 9.49889 11.0356 9.44823 11.1053C9.39757 11.1751 9.33367 11.2342 9.26017 11.2792C9.18668 11.3243 9.10502 11.3544 9.01988 11.3679C8.93473 11.3814 8.84776 11.378 8.76393 11.3579C8.6801 11.3378 8.60105 11.3014 8.53129 11.2507C8.46154 11.2001 8.40245 11.1362 8.35739 11.0627C8.31233 10.9892 8.28219 10.9075 8.26869 10.8224C8.13745 10.0001 7.71738 9.25164 7.08391 8.71126C6.45044 8.17089 5.64508 7.87405 4.81244 7.87405C3.9798 7.87405 3.17444 8.17089 2.54097 8.71126C1.9075 9.25164 1.48743 10.0001 1.35619 10.8224C1.34263 10.9075 1.31243 10.9892 1.26732 11.0626C1.22221 11.1361 1.16307 11.2 1.09328 11.2506C1.02348 11.3012 0.944399 11.3376 0.860546 11.3577C0.776693 11.3777 0.68971 11.3811 0.604564 11.3675C0.519418 11.3539 0.437777 11.3237 0.364301 11.2786C0.290825 11.2335 0.226954 11.1744 0.176335 11.1046C0.125715 11.0348 0.0893386 10.9557 0.0692816 10.8719C0.0492246 10.788 0.0458801 10.701 0.0594391 10.6159C0.18174 9.85079 0.486959 9.12655 0.949152 8.50471C1.41135 7.88286 2.01685 7.38181 2.71419 7.04413C2.40969 6.75772 2.16705 6.412 2.00122 6.02826C1.83539 5.64453 1.74987 5.23091 1.74994 4.81288ZM9.62494 3.50038C10.1333 3.50073 10.6307 3.64866 11.0566 3.9262C11.4826 4.20373 11.8188 4.59895 12.0245 5.06387C12.2302 5.52879 12.2965 6.04342 12.2153 6.54529C12.1342 7.04716 11.9091 7.51469 11.5674 7.89113C12.1003 8.15512 12.5738 8.52498 12.9589 8.97812C13.3441 9.43125 13.6328 9.95815 13.8074 10.5266C13.8421 10.6369 13.847 10.7545 13.8216 10.8673C13.7962 10.9801 13.7414 11.0842 13.6627 11.1689C13.5841 11.2537 13.4844 11.3162 13.3738 11.35C13.2632 11.3838 13.1457 11.3877 13.0331 11.3614C12.9205 11.3353 12.8168 11.28 12.7324 11.2011C12.6481 11.1221 12.5861 11.0222 12.5527 10.9116C12.3956 10.4044 12.1098 9.94662 11.723 9.58286C11.3363 9.2191 10.8618 8.96182 10.3459 8.83613C10.2027 8.80154 10.0752 8.71971 9.98407 8.60384C9.89295 8.48796 9.8435 8.34479 9.84369 8.19738V7.88938C9.84361 7.7672 9.87764 7.64743 9.94195 7.54354C10.0063 7.43966 10.0983 7.35579 10.2077 7.30138C10.473 7.16991 10.686 6.95263 10.8122 6.68481C10.9384 6.41699 10.9703 6.11438 10.9028 5.82612C10.8353 5.53786 10.6723 5.28089 10.4403 5.09695C10.2084 4.913 9.921 4.81289 9.62494 4.81288C9.45089 4.81288 9.28397 4.74374 9.1609 4.62067C9.03783 4.4976 8.96869 4.33068 8.96869 4.15663C8.96869 3.98258 9.03783 3.81566 9.1609 3.69259C9.28397 3.56952 9.45089 3.50038 9.62494 3.50038ZM4.81244 3.06288C4.57939 3.05761 4.34764 3.09895 4.13079 3.18448C3.91394 3.27001 3.71637 3.39799 3.54966 3.56093C3.38296 3.72387 3.25049 3.91847 3.16003 4.1333C3.06956 4.34814 3.02293 4.57889 3.02288 4.81199C3.02282 5.0451 3.06933 5.27587 3.15969 5.49075C3.25004 5.70563 3.38241 5.9003 3.54904 6.06332C3.71566 6.22634 3.91317 6.35443 4.12998 6.44006C4.34679 6.5257 4.57852 6.56716 4.81156 6.562C5.26881 6.55189 5.70392 6.36318 6.02376 6.03627C6.34361 5.70936 6.52276 5.27022 6.52288 4.81287C6.52299 4.35552 6.34406 3.91629 6.02438 3.58922C5.7047 3.26215 5.26968 3.07322 4.81244 3.06288Z" fill="#E94444"/>
</svg>
